<svg width="32" height="32" viewBox="0 0 32 32" fill="none" xmlns="http://www.w3.org/2000/svg">
<path fill-rule="evenodd" clip-rule="evenodd" d="M5.45055 1.59988C3.64426 1.59988 2.73967 3.78376 4.01691 5.061L6.91214 7.95623C7.29236 8.33645 7.80806 8.55006 8.34578 8.55006H13.6154C14.153 8.55006 14.6686 8.7636 15.0488 9.14373L20.527 14.6207C21.319 15.4125 21.319 16.6963 20.5272 17.4881L15.0489 22.9665C14.6686 23.3467 14.1529 23.5603 13.6152 23.5603H8.34568C7.80802 23.5603 7.29237 23.7739 6.91216 24.154L4.01758 27.0481C2.74019 28.3253 3.64475 30.5094 5.45111 30.5094H16.4935C17.0313 30.5094 17.5469 30.2957 17.9272 29.9155L30.3547 17.488C31.1465 16.6962 31.1465 15.4125 30.3547 14.6207L17.9272 2.19369C17.5469 1.81348 17.0313 1.59988 16.4936 1.59988H5.45055Z" fill="#0064F9"/>
<path fill-rule="evenodd" clip-rule="evenodd" d="M1.43385 14.6208C0.641974 15.4126 0.641928 16.6964 1.43375 17.4882L4.04485 20.0993C5.32209 21.3765 7.50596 20.4719 7.50596 18.6656V13.4438C7.50596 11.6376 5.32224 10.733 4.04496 12.0101L1.43385 14.6208Z" fill="#0064F9"/>
</svg>
