<svg width="127" height="127" viewBox="0 0 127 127" fill="none" xmlns="http://www.w3.org/2000/svg">
<path fill-rule="evenodd" clip-rule="evenodd" d="M21.5068 6.64917C14.3795 6.64917 10.8102 15.2663 15.8499 20.306L27.2739 31.73C28.7742 33.2303 30.809 34.0731 32.9307 34.0731H53.7234C55.8448 34.0731 57.8794 34.9158 59.3796 36.4157L80.9955 58.0267C84.1203 61.1508 84.1205 66.2166 80.9961 69.341L59.3797 90.9574C57.8794 92.4577 55.8446 93.3005 53.7229 93.3005H32.9304C30.8089 93.3005 28.7742 94.1432 27.274 95.6432L15.8526 107.063C10.8122 112.102 14.3814 120.72 21.509 120.72H65.0801C67.2019 120.72 69.2367 119.877 70.737 118.377L119.773 69.3405C122.898 66.2162 122.898 61.1508 119.773 58.0267L70.737 8.9922C69.2367 7.49198 67.2019 6.64917 65.0802 6.64917H21.5068Z" fill="#0064F9"/>
<path fill-rule="evenodd" clip-rule="evenodd" d="M5.65771 58.027C2.53311 61.1511 2.53292 66.2168 5.65728 69.3411L15.9601 79.644C20.9999 84.6837 29.617 81.1144 29.617 73.9872V53.3829C29.617 46.256 21.0005 42.6865 15.9606 47.7257L5.65771 58.027Z" fill="#0064F9"/>
</svg>
