<svg width="907" height="174" viewBox="0 0 907 174" fill="none" xmlns="http://www.w3.org/2000/svg">
<path fill-rule="evenodd" clip-rule="evenodd" d="M21.5068 38.6492C14.3795 38.6492 10.8102 47.2663 15.8499 52.306L27.2739 63.73C28.7742 65.2303 30.809 66.0731 32.9307 66.0731H53.7234C55.8448 66.0731 57.8794 66.9158 59.3796 68.4157L80.9955 90.0267C84.1203 93.1508 84.1205 98.2166 80.9961 101.341L59.3797 122.957C57.8794 124.458 55.8446 125.301 53.7229 125.301H32.9304C30.8089 125.301 28.7742 126.143 27.274 127.643L15.8526 139.063C10.8122 144.102 14.3814 152.72 21.509 152.72H65.0801C67.2019 152.72 69.2367 151.877 70.737 150.377L119.773 101.34C122.898 98.2162 122.898 93.1508 119.773 90.0267L70.737 40.9922C69.2367 39.492 67.2019 38.6492 65.0802 38.6492H21.5068Z" fill="#0064F9"/>
<path fill-rule="evenodd" clip-rule="evenodd" d="M5.65771 90.027C2.53311 93.1511 2.53292 98.2168 5.65728 101.341L15.9601 111.644C20.9999 116.684 29.617 113.114 29.617 105.987V85.3829C29.617 78.256 21.0005 74.6865 15.9606 79.7257L5.65771 90.027Z" fill="#0064F9"/>
<path d="M187.135 145.663C192.678 145.663 197.713 144.601 202.24 142.476C206.86 140.258 210.555 137.117 213.327 133.052V144H225.938V39.0919H212.911V79.2812C210.047 75.5857 206.398 72.7216 201.963 70.689C197.529 68.6565 192.586 67.6402 187.135 67.6402C180.113 67.6402 173.784 69.3494 168.149 72.7678C162.605 76.1862 158.217 80.8519 154.983 86.7648C151.75 92.5853 150.133 99.2373 150.133 106.721C150.133 114.112 151.75 120.764 154.983 126.677C158.217 132.498 162.605 137.117 168.149 140.535C173.784 143.954 180.113 145.663 187.135 145.663ZM188.243 133.19C183.532 133.19 179.328 132.036 175.632 129.726C171.937 127.416 169.026 124.275 166.901 120.302C164.776 116.237 163.714 111.71 163.714 106.721C163.714 101.639 164.776 97.1124 166.901 93.1396C169.026 89.0745 171.937 85.8871 175.632 83.5773C179.42 81.2676 183.624 80.1127 188.243 80.1127C192.955 80.1127 197.159 81.3138 200.855 83.7159C204.55 86.0257 207.46 89.1669 209.585 93.1396C211.803 97.1124 212.911 101.639 212.911 106.721C212.911 111.71 211.803 116.237 209.585 120.302C207.46 124.275 204.55 127.416 200.855 129.726C197.159 132.036 192.955 133.19 188.243 133.19ZM244.917 57.385H257.944V40.7549H244.917V57.385ZM244.917 144H257.944V69.3032H233.969V81.6372H244.917V144ZM270.87 144H283.758V81.6372H318.404V144H331.431V81.6372H366.077V144H379.104V69.3032H270.87V144ZM412.376 145.663C417.827 145.663 422.724 144.647 427.066 142.614C431.408 140.489 434.919 137.718 437.598 134.299V144H450.21V69.3032H394.637V81.6372H437.321V96.7428L411.822 100.9C403.414 102.286 397.224 105.104 393.251 109.354C389.371 113.512 387.431 118.547 387.431 124.46C387.431 130.742 389.741 135.87 394.36 139.842C399.072 143.723 405.077 145.663 412.376 145.663ZM401.012 124.044C401.012 120.81 402.075 118.085 404.2 115.867C406.417 113.65 409.928 112.126 414.732 111.294L437.321 107.552V112.264C437.321 116.422 436.351 120.21 434.411 123.628C432.471 127.047 429.745 129.772 426.234 131.805C422.724 133.745 418.612 134.715 413.9 134.715C410.205 134.715 407.11 133.699 404.615 131.666C402.213 129.633 401.012 127.093 401.012 124.044ZM490.01 145.663C495.369 145.663 500.081 144.739 504.146 142.891C508.211 141.044 511.398 138.503 513.708 135.269C516.018 131.943 517.173 128.155 517.173 123.905C517.173 118.732 515.463 114.297 512.045 110.601C508.627 106.906 503.915 104.18 497.91 102.425L485.714 98.8216C484.236 98.3596 482.711 97.8053 481.141 97.1586C479.57 96.4195 478.231 95.4032 477.122 94.1097C476.013 92.7239 475.459 90.9685 475.459 88.8435C475.459 85.8871 476.568 83.485 478.785 81.6372C481.095 79.7894 484.097 78.8655 487.793 78.8655C491.858 78.8655 495.554 80.0203 498.88 82.3301C502.298 84.5474 504.839 87.5963 506.502 91.4766L517.034 86.6262C514.817 80.6209 511.075 75.9552 505.809 72.6292C500.635 69.3032 494.768 67.6402 488.209 67.6402C483.312 67.6402 478.877 68.5641 474.905 70.4119C471.024 72.2596 467.929 74.8465 465.619 78.1726C463.402 81.4062 462.293 85.2403 462.293 89.675C462.293 94.4793 463.818 98.7292 466.867 102.425C470.008 106.028 474.951 108.753 481.695 110.601L492.92 113.789C494.491 114.158 496.108 114.759 497.771 115.59C499.526 116.329 501.005 117.392 502.206 118.778C503.499 120.071 504.146 121.827 504.146 124.044C504.146 127.185 502.806 129.726 500.127 131.666C497.448 133.606 494.075 134.576 490.01 134.576C485.483 134.576 481.372 133.329 477.676 130.835C473.981 128.248 471.07 124.691 468.945 120.164L458.69 125.153C461 131.435 464.926 136.424 470.47 140.12C476.013 143.815 482.527 145.663 490.01 145.663ZM527.115 144H540.003V81.6372H565.226V69.3032H527.115V144ZM591.75 145.663C597.201 145.663 602.098 144.647 606.44 142.614C610.783 140.489 614.293 137.718 616.973 134.299V144H629.584V69.3032H574.012V81.6372H616.696V96.7428L591.196 100.9C582.789 102.286 576.599 105.104 572.626 109.354C568.745 113.512 566.805 118.547 566.805 124.46C566.805 130.742 569.115 135.87 573.734 139.842C578.446 143.723 584.452 145.663 591.75 145.663ZM580.387 124.044C580.387 120.81 581.449 118.085 583.574 115.867C585.791 113.65 589.302 112.126 594.106 111.294L616.696 107.552V112.264C616.696 116.422 615.725 120.21 613.785 123.628C611.845 127.047 609.12 129.772 605.609 131.805C602.098 133.745 597.987 134.715 593.275 134.715C589.579 134.715 586.484 133.699 583.99 131.666C581.588 129.633 580.387 127.093 580.387 124.044ZM642.638 144H655.526V110.74H669.523L693.221 144H708.465L681.026 104.781L704.308 69.3032H689.202L669.939 98.4058H655.526V39.0919H642.638V144ZM734.882 145.663C740.333 145.663 745.229 144.647 749.572 142.614C753.914 140.489 757.425 137.718 760.104 134.299V144H772.715V69.3032H717.143V81.6372H759.827V96.7428L734.327 100.9C725.92 102.286 719.73 105.104 715.757 109.354C711.877 113.512 709.937 118.547 709.937 124.46C709.937 130.742 712.246 135.87 716.866 139.842C721.578 143.723 727.583 145.663 734.882 145.663ZM723.518 124.044C723.518 120.81 724.58 118.085 726.705 115.867C728.923 113.65 732.433 112.126 737.238 111.294L759.827 107.552V112.264C759.827 116.422 758.857 120.21 756.917 123.628C754.976 127.047 752.251 129.772 748.74 131.805C745.229 133.745 741.118 134.715 736.406 134.715C732.711 134.715 729.616 133.699 727.121 131.666C724.719 129.633 723.518 127.093 723.518 124.044ZM812.516 145.663C817.875 145.663 822.586 144.739 826.651 142.891C830.717 141.044 833.904 138.503 836.214 135.269C838.524 131.943 839.678 128.155 839.678 123.905C839.678 118.732 837.969 114.297 834.551 110.601C831.132 106.906 826.421 104.18 820.415 102.425L808.22 98.8216C806.742 98.3596 805.217 97.8053 803.647 97.1586C802.076 96.4195 800.736 95.4032 799.628 94.1097C798.519 92.7239 797.965 90.9685 797.965 88.8435C797.965 85.8871 799.073 83.485 801.291 81.6372C803.6 79.7894 806.603 78.8655 810.299 78.8655C814.364 78.8655 818.059 80.0203 821.385 82.3301C824.804 84.5474 827.344 87.5963 829.007 91.4766L839.54 86.6262C837.322 80.6209 833.581 75.9552 828.315 72.6292C823.141 69.3032 817.274 67.6402 810.714 67.6402C805.818 67.6402 801.383 68.5641 797.41 70.4119C793.53 72.2596 790.435 74.8465 788.125 78.1726C785.908 81.4062 784.799 85.2403 784.799 89.675C784.799 94.4793 786.324 98.7292 789.372 102.425C792.514 106.028 797.456 108.753 804.201 110.601L815.426 113.789C816.997 114.158 818.614 114.759 820.277 115.59C822.032 116.329 823.51 117.392 824.711 118.778C826.005 120.071 826.651 121.827 826.651 124.044C826.651 127.185 825.312 129.726 822.633 131.666C819.953 133.606 816.581 134.576 812.516 134.576C807.989 134.576 803.878 133.329 800.182 130.835C796.486 128.248 793.576 124.691 791.451 120.164L781.196 125.153C783.506 131.435 787.432 136.424 792.976 140.12C798.519 143.815 805.032 145.663 812.516 145.663ZM854.887 144H868.33V127.37H854.887V144Z" fill="#031B4E"/>
</svg>
