<svg width="180" height="180" viewBox="0 0 180 180" fill="none" xmlns="http://www.w3.org/2000/svg">
<rect width="180" height="180" rx="25" fill="white"/>
<path fill-rule="evenodd" clip-rule="evenodd" d="M63.1548 42.2997C56.0276 42.2997 52.4582 50.9168 57.4979 55.9565L64.5204 62.979C66.0207 64.4793 68.0555 65.3221 70.1772 65.3221H86.5691C88.6905 65.3221 90.7251 66.1647 92.2253 67.6646L109.088 84.5232C112.212 87.6473 112.213 92.7131 109.088 95.8376L92.2254 112.7C90.7251 114.201 88.6903 115.044 86.5686 115.044H70.1769C68.0553 115.044 66.0207 115.886 64.5205 117.386L57.5006 124.405C52.4602 129.445 56.0294 138.062 63.157 138.062H96.103C98.2247 138.062 100.26 137.219 101.76 135.719L141.642 95.837C144.766 92.7128 144.766 87.6474 141.642 84.5232L101.76 44.6427C100.26 43.1425 98.2247 42.2997 96.1031 42.2997H63.1548Z" fill="#0064F9"/>
<path fill-rule="evenodd" clip-rule="evenodd" d="M47.6577 84.5235C44.5331 87.6476 44.5329 92.7133 47.6573 95.8376L53.2066 101.387C58.2464 106.427 66.8635 102.857 66.8635 95.7301V84.6322C66.8635 77.5053 58.247 73.9358 53.2071 78.9749L47.6577 84.5235Z" fill="#0064F9"/>
</svg>
